<?xml version="1.0" encoding="UTF-8" standalone="no"?>
<!-- Generator: Adobe Illustrator 15.0.0, SVG Export Plug-In . SVG Version: 6.00 Build 0)  -->

<svg
   xmlns:dc="http://purl.org/dc/elements/1.1/"
   xmlns:cc="http://creativecommons.org/ns#"
   xmlns:rdf="http://www.w3.org/1999/02/22-rdf-syntax-ns#"
   xmlns:svg="http://www.w3.org/2000/svg"
   xmlns="http://www.w3.org/2000/svg"
   xmlns:sodipodi="http://sodipodi.sourceforge.net/DTD/sodipodi-0.dtd"
   xmlns:inkscape="http://www.inkscape.org/namespaces/inkscape"
   version="1.1"
   id="Layer_1"
   x="0px"
   y="0px"
   width="305px"
   height="305px"
   viewBox="0 0 305 305"
   enable-background="new 0 0 305 305"
   xml:space="preserve"
   sodipodi:docname="change-management-citi.svg"
   inkscape:version="0.92.2 (5c3e80d, 2017-08-06)"
   inkscape:export-filename="C:\Users\js92523\projects\technical-diagrams\change-management-citi.png"
   inkscape:export-xdpi="96"
   inkscape:export-ydpi="96"><metadata
     id="metadata1347"><rdf:RDF><cc:Work
         rdf:about=""><dc:format>image/svg+xml</dc:format><dc:type
           rdf:resource="http://purl.org/dc/dcmitype/StillImage" /><dc:title></dc:title></cc:Work></rdf:RDF></metadata><defs
     id="defs1345" /><sodipodi:namedview
     pagecolor="#ffffff"
     bordercolor="#666666"
     borderopacity="1"
     objecttolerance="10"
     gridtolerance="10"
     guidetolerance="10"
     inkscape:pageopacity="0"
     inkscape:pageshadow="2"
     inkscape:window-width="1594"
     inkscape:window-height="944"
     id="namedview1343"
     showgrid="false"
     inkscape:zoom="2.058724"
     inkscape:cx="85.839658"
     inkscape:cy="147.03052"
     inkscape:window-x="4167"
     inkscape:window-y="66"
     inkscape:window-maximized="0"
     inkscape:current-layer="Layer_1" /><g
     id="g1084"><ellipse
       fill="#0668B3"
       cx="157"
       cy="159.656"
       rx="81"
       ry="86.156"
       id="ellipse1082" /></g><g
     id="g1090"><circle
       cx="89"
       cy="232.813"
       r="49.582"
       id="circle1086"
       fill="#133A62" /><path
       d="M89,284.895c-28.718,0-52.082-23.364-52.082-52.082S60.282,180.73,89,180.73s52.082,23.364,52.082,52.082   S117.718,284.895,89,284.895z M89,185.73c-25.961,0-47.082,21.121-47.082,47.082S63.039,279.895,89,279.895   s47.082-21.121,47.082-47.082S114.961,185.73,89,185.73z"
       id="path1088"
       fill="#FFFFFF" /></g><g
     id="g1096"><circle
       fill="#133A62"
       cx="178"
       cy="245.813"
       r="49.582"
       id="circle1092" /><path
       fill="#FFFFFF"
       d="M178,297.895c-28.718,0-52.082-23.364-52.082-52.082S149.282,193.73,178,193.73   c28.718,0,52.082,23.364,52.082,52.082S206.718,297.895,178,297.895z M178,198.73c-25.961,0-47.082,21.121-47.082,47.082   s21.121,47.082,47.082,47.082s47.082-21.121,47.082-47.082S203.961,198.73,178,198.73z"
       id="path1094" /></g><g
     id="g1168"><circle
       fill="#133A62"
       cx="55"
       cy="155.813"
       r="49.582"
       id="circle1164" /><path
       fill="#FFFFFF"
       d="M55,207.895c-28.718,0-52.082-23.364-52.082-52.082S26.282,103.731,55,103.731s52.082,23.364,52.082,52.082   S83.718,207.895,55,207.895z M55,108.731c-25.961,0-47.082,21.121-47.082,47.082S29.039,202.895,55,202.895   s47.082-21.121,47.082-47.082S80.961,108.731,55,108.731z"
       id="path1166" /></g><g
     id="g1208"><circle
       cx="89"
       cy="84.813"
       r="49.582"
       id="circle1204"
       fill="#133A62" /><path
       d="M89,136.895c-28.718,0-52.082-23.364-52.082-52.082S60.282,32.731,89,32.731s52.082,23.364,52.082,52.082   S117.718,136.895,89,136.895z M89,37.731c-25.961,0-47.082,21.121-47.082,47.082S63.039,131.895,89,131.895   s47.082-21.121,47.082-47.082S114.961,37.731,89,37.731z"
       id="path1206"
       fill="#FFFFFF" /></g><g
     id="g1228"><circle
       cx="166"
       cy="56.813"
       r="49.582"
       id="circle1224"
       fill="#133A62" /><path
       d="M166,108.895c-28.718,0-52.082-23.364-52.082-52.082S137.282,4.731,166,4.731   c28.718,0,52.082,23.364,52.082,52.082S194.718,108.895,166,108.895z M166,9.731c-25.961,0-47.082,21.121-47.082,47.082   s21.121,47.082,47.082,47.082s47.082-21.121,47.082-47.082S191.961,9.731,166,9.731z"
       id="path1226"
       fill="#FFFFFF" /></g><g
     id="g1270"><circle
       fill="#133A62"
       cx="249"
       cy="192.813"
       r="49.582"
       id="circle1266" /><path
       fill="#FFFFFF"
       d="M249,244.895c-28.718,0-52.082-23.364-52.082-52.082s23.364-52.082,52.082-52.082   s52.082,23.364,52.082,52.082S277.718,244.895,249,244.895z M249,145.731c-25.961,0-47.082,21.121-47.082,47.082   s21.121,47.082,47.082,47.082s47.082-21.121,47.082-47.082S274.961,145.731,249,145.731z"
       id="path1268" /></g><g
     id="g1308"><circle
       fill="#133A62"
       cx="243"
       cy="107.5"
       r="49.582"
       id="circle1304" /><path
       fill="#FFFFFF"
       d="M243,159.582c-28.718,0-52.082-23.364-52.082-52.082S214.282,55.418,243,55.418   s52.082,23.364,52.082,52.082S271.718,159.582,243,159.582z M243,60.418c-25.961,0-47.082,21.121-47.082,47.082   s21.121,47.082,47.082,47.082s47.082-21.121,47.082-47.082S268.961,60.418,243,60.418z"
       id="path1306" /></g><g
     id="g1340"><g
       id="g1334"><path
         fill="#FFFFFF"
         d="M155.499,181.785c-6.889,0-13.778-2.623-19.023-7.867c-5.082-5.082-7.88-11.838-7.88-19.024    c0-7.186,2.798-13.942,7.88-19.023c5.081-5.082,11.837-7.88,19.023-7.88c7.187,0,13.941,2.798,19.022,7.88    c0.977,0.976,0.977,2.559,0,3.536c-0.977,0.976-2.559,0.976-3.535,0c-4.137-4.137-9.637-6.415-15.487-6.415    c-5.85,0-11.351,2.278-15.488,6.415c-4.137,4.137-6.416,9.638-6.416,15.488s2.278,11.352,6.416,15.489    c8.541,8.539,22.436,8.539,30.975,0c4.575-4.575,6.886-10.9,6.339-17.353c-0.116-1.375,0.904-2.585,2.28-2.702    c1.371-0.113,2.586,0.905,2.702,2.28c0.671,7.924-2.167,15.69-7.786,21.31C169.277,179.162,162.389,181.785,155.499,181.785z"
         id="path1332" /></g><g
       id="g1338"><path
         fill="#FFFFFF"
         d="M177.498,143.404h-12.042c-1.381,0-2.5-1.119-2.5-2.5s1.119-2.5,2.5-2.5h7.042v-8.701    c0-1.381,1.119-2.5,2.5-2.5s2.5,1.119,2.5,2.5V143.404z"
         id="path1336" /></g></g><text
     xml:space="preserve"
     style="font-style:normal;font-variant:normal;font-weight:normal;font-stretch:normal;font-size:13.33333302px;line-height:1.25;font-family:Ubuntu;-inkscape-font-specification:Ubuntu;letter-spacing:0px;word-spacing:0px;fill:#ffffff;fill-opacity:1;stroke:none"
     x="217.36765"
     y="113.61931"
     id="text1420"><tspan
       sodipodi:role="line"
       id="tspan1418"
       x="217.36765"
       y="113.61931"
       style="font-size:16px">Review</tspan></text>
<text
     xml:space="preserve"
     style="font-style:normal;font-variant:normal;font-weight:normal;font-stretch:normal;font-size:13.33333302px;line-height:1.25;font-family:Ubuntu;-inkscape-font-specification:Ubuntu;letter-spacing:0px;word-spacing:0px;fill:#ffffff;fill-opacity:1;stroke:none"
     x="137.40375"
     y="48.979343"
     id="text1420-1"><tspan
       sodipodi:role="line"
       x="137.40375"
       y="48.979343"
       style="font-size:16px"
       id="tspan1440">Change</tspan><tspan
       sodipodi:role="line"
       x="137.40375"
       y="68.97934"
       style="font-size:16px"
       id="tspan1442">Request</tspan></text>
<text
     xml:space="preserve"
     style="font-style:normal;font-variant:normal;font-weight:normal;font-stretch:normal;font-size:13.33333302px;line-height:1.25;font-family:Ubuntu;-inkscape-font-specification:Ubuntu;text-align:center;letter-spacing:0px;word-spacing:0px;text-anchor:middle;fill:#ffffff;fill-opacity:1;stroke:none"
     x="248.57368"
     y="186.20026"
     id="text1420-8"><tspan
       sodipodi:role="line"
       id="tspan1418-7"
       x="248.57368"
       y="186.20026"
       style="font-size:16px;text-align:center;text-anchor:middle">Task</tspan><tspan
       sodipodi:role="line"
       x="248.57368"
       y="206.20026"
       style="font-size:16px;text-align:center;text-anchor:middle"
       id="tspan1464">Assesment</tspan></text>
<text
     xml:space="preserve"
     style="font-style:normal;font-variant:normal;font-weight:normal;font-stretch:normal;font-size:13.33333302px;line-height:1.25;font-family:Ubuntu;-inkscape-font-specification:Ubuntu;letter-spacing:0px;word-spacing:0px;fill:#ffffff;fill-opacity:1;stroke:none"
     x="142.26112"
     y="252.26059"
     id="text1420-2"><tspan
       sodipodi:role="line"
       id="tspan1418-2"
       x="142.26112"
       y="252.26059"
       style="font-size:16px">Approvals</tspan></text>
<text
     xml:space="preserve"
     style="font-style:normal;font-variant:normal;font-weight:normal;font-stretch:normal;font-size:13.33333302px;line-height:1.25;font-family:Ubuntu;-inkscape-font-specification:Ubuntu;text-align:center;letter-spacing:0px;word-spacing:0px;text-anchor:middle;fill:#ffffff;fill-opacity:1;stroke:none"
     x="85.609772"
     y="230.64526"
     id="text1420-5"><tspan
       sodipodi:role="line"
       id="tspan1418-6"
       x="85.609772"
       y="230.64526"
       style="font-size:16px;text-align:center;text-anchor:middle">Implement</tspan><tspan
       sodipodi:role="line"
       x="85.609772"
       y="250.64528"
       style="font-size:16px;text-align:center;text-anchor:middle"
       id="tspan1482">change</tspan></text>
<text
     xml:space="preserve"
     style="font-style:normal;font-variant:normal;font-weight:normal;font-stretch:normal;font-size:13.33333302px;line-height:1.25;font-family:Ubuntu;-inkscape-font-specification:Ubuntu;letter-spacing:0px;word-spacing:0px;fill:#ffffff;fill-opacity:1;stroke:none"
     x="65.028816"
     y="88.809837"
     id="text1420-7"><tspan
       sodipodi:role="line"
       id="tspan1418-29"
       x="65.028816"
       y="88.809837"
       style="font-size:16px">Close</tspan></text>
<text
     xml:space="preserve"
     style="font-style:normal;font-variant:normal;font-weight:normal;font-stretch:normal;font-size:13.33333302px;line-height:1.25;font-family:Ubuntu;-inkscape-font-specification:Ubuntu;letter-spacing:0px;word-spacing:0px;fill:#ffffff;fill-opacity:1;stroke:none"
     x="26.412663"
     y="152.92723"
     id="text1420-9"><tspan
       sodipodi:role="line"
       id="tspan1418-62"
       x="26.412663"
       y="152.92723"
       style="font-size:16px">Test &amp;</tspan><tspan
       sodipodi:role="line"
       x="26.412663"
       y="172.92723"
       style="font-size:16px"
       id="tspan1500">Sign off</tspan></text>
</svg>