<?xml version="1.0" encoding="iso-8859-1"?>
<!-- Generator: Adobe Illustrator 19.0.0, SVG Export Plug-In . SVG Version: 6.00 Build 0)  -->
<svg version="1.1" id="Capa_1" xmlns="http://www.w3.org/2000/svg" xmlns:xlink="http://www.w3.org/1999/xlink" x="0px" y="0px"
	 viewBox="0 0 490 490" style="enable-background:new 0 0 490 490;" xml:space="preserve">
<g>
	<path d="M490,212.2c0-28.1-12.5-55.1-34.3-74.9c-7.3-56.2-60.3-97.8-125.9-97.8c-13.5,0-27,1-39.5,5.2C266.3,16.6,227.8,0,187.3,0
		c-69.7,0-127,48.9-127,109.2c0,3.1,0,6.2,0,9.4C22.9,138.4,0,173.7,0,212.2c0,60.3,57.2,110.3,126.9,110.3c7.2,0,14.4-0.7,21.8-2
		v96.7c0,47.9,68.7,72.8,136.3,72.8s136.3-25,136.3-72.8V309.4C462.9,291.1,490,253.9,490,212.2z M379.7,417.2
		c0,9.4-33.3,32.3-94.7,32.3s-94.7-22.9-94.7-32.3v-28.4c25.7,12.6,60.3,19,94.7,19c34.3,0,68.9-6.4,94.7-19V417.2z M379.7,335
		c0,9.4-33.3,32.3-94.7,32.3s-94.7-22.9-94.7-32.3v-28.4c25.7,12.6,60.3,19,94.7,19c34.3,0,68.9-6.4,94.7-19V335z M285.1,285.1
		c-61.4,0-94.7-22.9-94.7-32.3s33.3-32.3,94.7-32.3s94.7,22.9,94.7,32.3C379.7,262.2,346.4,285.1,285.1,285.1z M421.3,262.6v-9.8
		l0,0c0-47.9-68.7-72.8-136.3-72.8s-136.3,25-136.3,72.8v25.1c-6.5,1.2-13.1,1.9-19.8,1.9c-47.9,0-86.3-31.2-86.3-68.7
		c0-27,19.8-51,49.9-62.4c10.4-4.2,15.6-14.6,12.5-25c-1-5.2-2.1-10.4-2.1-15.6c0-37.5,38.5-68.7,86.3-68.7
		c32.3,0,62.4,15.6,77,39.5c5.2,8.3,15.6,12.5,25,8.3c12.5-4.2,26-7.3,39.5-7.3c45.8,0,84.3,30.2,85.3,67.6c0,6.2,2.1,11.4,7.3,15.6
		c16.6,13.5,26,30.2,26,48.9C449.4,231.9,439,249.9,421.3,262.6z"/>
</g>
<g>
</g>
<g>
</g>
<g>
</g>
<g>
</g>
<g>
</g>
<g>
</g>
<g>
</g>
<g>
</g>
<g>
</g>
<g>
</g>
<g>
</g>
<g>
</g>
<g>
</g>
<g>
</g>
<g>
</g>
</svg>
