<?xml version="1.0" encoding="iso-8859-1"?>
<!-- Generator: Adobe Illustrator 19.0.0, SVG Export Plug-In . SVG Version: 6.00 Build 0)  -->
<svg version="1.1" id="Layer_1" xmlns="http://www.w3.org/2000/svg" xmlns:xlink="http://www.w3.org/1999/xlink" x="0px" y="0px"
	 viewBox="0 0 490 490" style="enable-background:new 0 0 490 490;" xml:space="preserve">
<g>
	<g>
		<g>
			<path d="M445,0H325c-3.645,0-7.054,0.996-10,2.706C312.054,0.996,308.645,0,305,0H185c-3.645,0-7.054,0.996-10,2.706
				C172.054,0.996,168.645,0,165,0H45C33.972,0,25,8.972,25,20v450c0,11.028,8.972,20,20,20h120c3.645,0,7.054-0.996,10-2.706
				c2.946,1.71,6.355,2.706,10,2.706h120c3.645,0,7.054-0.996,10-2.706c2.946,1.71,6.355,2.706,10,2.706h120
				c11.028,0,20-8.972,20-20V20C465,8.972,456.028,0,445,0z M165,470H45V20l120-0.002V470z M305,470H185V20h120V470z M445,470
				l-120,0.002V20h120V470z"/>
			<rect x="340" y="265" width="90" height="20"/>
			<rect x="340" y="305" width="90" height="20"/>
			<rect x="340" y="345" width="90" height="20"/>
			<rect x="200" y="265" width="90" height="20"/>
			<rect x="200" y="305" width="90" height="20"/>
			<rect x="200" y="345" width="90" height="20"/>
			<rect x="60" y="265" width="90" height="20"/>
			<rect x="60" y="305" width="90" height="20"/>
			<rect x="60" y="345" width="90" height="20"/>
			<path d="M350,245h70c5.522,0,10-4.478,10-10V45c0-5.522-4.478-10-10-10h-70c-5.522,0-10,4.478-10,10v190
				C340,240.522,344.478,245,350,245z M360,55h50v170h-50V55z"/>
			<path d="M385,380c-19.299,0-35,15.701-35,35s15.701,35,35,35s35-15.701,35-35S404.299,380,385,380z M385,430
				c-8.271,0-15-6.729-15-15s6.729-15,15-15s15,6.729,15,15S393.271,430,385,430z"/>
			<path d="M210,245h70c5.522,0,10-4.478,10-10V45c0-5.522-4.478-10-10-10h-70c-5.523,0-10,4.478-10,10v190
				C200,240.522,204.477,245,210,245z M220,55h50v170h-50V55z"/>
			<path d="M245,380c-19.299,0-35,15.701-35,35s15.701,35,35,35s35-15.701,35-35S264.299,380,245,380z M245,430
				c-8.271,0-15-6.729-15-15s6.729-15,15-15s15,6.729,15,15S253.271,430,245,430z"/>
			<path d="M70,245h70c5.523,0,10-4.478,10-10V45c0-5.522-4.477-10-10-10H70c-5.523,0-10,4.478-10,10v190
				C60,240.522,64.477,245,70,245z M80,55h50v170H80V55z"/>
			<path d="M105,380c-19.299,0-35,15.701-35,35s15.701,35,35,35s35-15.701,35-35S124.299,380,105,380z M105,430
				c-8.271,0-15-6.729-15-15s6.729-15,15-15s15,6.729,15,15S113.271,430,105,430z"/>
		</g>
	</g>
</g>
<g>
</g>
<g>
</g>
<g>
</g>
<g>
</g>
<g>
</g>
<g>
</g>
<g>
</g>
<g>
</g>
<g>
</g>
<g>
</g>
<g>
</g>
<g>
</g>
<g>
</g>
<g>
</g>
<g>
</g>
</svg>
